<svg width="20" height="20" viewBox="0 0 39 40" fill="none" xmlns="http://www.w3.org/2000/svg">
<path d="M12.2969 35.6506H26.3602L26.1238 36.2306L25.4147 37.2938L24.3511 38.2604L23.2875 39.0336L21.633 39.7102L20.8058 39.9035L19.8603 40.0002H18.7967L17.1422 39.7102L16.1968 39.4203L14.6605 38.5503L13.715 37.7771L12.6514 36.4239L12.2969 35.6506Z" fill="#f00"/>
<path d="M18.4359 0H20.5631L21.7449 0.386628L22.6903 0.966571L23.3994 1.83648L23.8721 3.383V3.86628L24.463 3.96294L26.2357 4.54288L27.772 5.31614L28.9538 6.0894L30.2538 7.15262L31.3174 8.40917L32.2628 9.95568L32.9719 11.9855L33.3264 13.7253L33.4446 15.3685L33.5628 20.6846L33.7992 22.4244L34.2719 23.971L34.8628 25.1308L35.9264 26.3874L36.7536 27.1606L37.5809 28.2239L38.2899 29.3838L38.7627 30.6403L38.999 31.7035V33.25L38.5263 33.83L38.0536 34.0233H0.945431L0.236358 33.54L0 33.0567V32.0902L0.354537 30.447L0.827252 29.2871L1.6545 27.9339L2.71811 26.774L3.8999 25.5175L4.72715 24.1643L5.31805 22.1345L5.55441 19.6214L5.67259 14.3052L6.02712 12.1788L6.61802 10.3423L7.20891 9.27908L8.03616 8.02254L9.21795 6.766L10.1634 5.99274L11.8179 5.02617L13.7087 4.25291L15.1269 3.76963L15.4814 2.22311L16.1905 1.15989L17.3723 0.289971L18.4359 0Z" fill="#f00"/>
</svg>
