<svg width="17" height="17" viewBox="0 0 17 17" fill="none" xmlns="http://www.w3.org/2000/svg">
<path d="M15.2903 7.32382C15.9624 7.32382 16.4665 7.8279 16.4665 8.5C16.4665 8.83605 16.3405 9.13009 16.1304 9.34013C15.9204 9.55016 15.6264 9.67618 15.2903 9.67618L9.66146 9.67618L9.66146 15.305C9.66146 15.6411 9.53544 15.9351 9.32541 16.1452C9.11538 16.3552 8.82133 16.4812 8.48528 16.4812C7.81318 16.4812 7.3091 15.9771 7.3091 15.305L7.3091 9.67618L1.68025 9.67618C1.00815 9.67618 0.504076 9.1721 0.504076 8.5C0.504076 7.8279 1.00815 7.32382 1.68025 7.32382L7.3091 7.32382L7.3091 1.69497C7.3091 1.02287 7.81318 0.518795 8.48528 0.518795C9.15738 0.518795 9.66146 1.02287 9.66146 1.69497L9.66146 7.32382L15.2903 7.32382Z" fill="white"/>
</svg>
