<svg width="20" height="20" viewBox="0 0 18 20" fill="none" xmlns="http://www.w3.org/2000/svg">
<path d="M14.9917 4.53125L14.4576 13.1709C14.3212 15.3783 14.2529 16.4819 13.6997 17.2754C13.4261 17.6678 13.0739 17.9989 12.6654 18.2477C11.8393 18.751 10.7335 18.751 8.52195 18.751C6.30744 18.751 5.20019 18.751 4.37351 18.2467C3.96479 17.9975 3.61249 17.6658 3.33903 17.2728C2.78592 16.478 2.71919 15.3728 2.58575 13.1623L2.0647 4.53125" stroke="#DF0C3D" stroke-width="1.55124" stroke-linecap="round"/>
<path d="M0.771973 4.53144H16.2844M12.0234 4.53144L11.4351 3.31779C11.0443 2.5116 10.8489 2.1085 10.5118 1.8571C10.437 1.80134 10.3579 1.75174 10.2751 1.70878C9.90181 1.51514 9.45385 1.51514 8.55793 1.51514C7.63951 1.51514 7.1803 1.51514 6.80086 1.7169C6.71676 1.76162 6.63651 1.81323 6.56094 1.87121C6.21996 2.13279 6.0295 2.55064 5.64856 3.38633L5.12658 4.53144" stroke="#DF0C3D" stroke-width="1.55124" stroke-linecap="round"/>
<path d="M6.37378 14.0117L6.37378 8.84092" stroke="#DF0C3D" stroke-width="1.55124" stroke-linecap="round"/>
<path d="M10.6826 14.0116L10.6826 8.84082" stroke="#DF0C3D" stroke-width="1.55124" stroke-linecap="round"/>
</svg>
