<svg width="20" height="20" viewBox="0 0 11 10" fill="none" xmlns="http://www.w3.org/2000/svg">
<g clip-path="url(#clip0_772_13969)">
<path d="M0.784 0.375977H9.84L10.048 0.423977L10.24 0.519977L10.432 0.695977L10.544 0.871977L10.608 1.06398L10.624 1.15998V1.33598L10.592 1.49598L10.512 1.68798L10.384 1.86398L10.224 1.99198L10.032 2.08798L9.904 2.11998H0.72L0.48 2.03998L0.32 1.92798L0.224 1.84798L0.112 1.68798L0.032 1.49598L0 1.33598V1.15998L0.048 0.951977L0.144 0.759977L0.32 0.567977L0.496 0.455977L0.688 0.391977L0.784 0.375977Z" fill="#272727"/>
<path d="M0.832 4.11987H9.792L9.984 4.15187L10.176 4.23187L10.352 4.35987L10.464 4.48787L10.592 4.74387L10.624 4.90387V5.09587L10.576 5.30387L10.464 5.51187L10.32 5.67187L10.144 5.78387L9.984 5.84787L9.792 5.87987H0.832L0.64 5.84787L0.448 5.76787L0.272 5.63987L0.16 5.51187L0.032 5.25587L0 5.07987V4.91987L0.048 4.69587L0.16 4.48787L0.304 4.32787L0.48 4.21587L0.64 4.15187L0.832 4.11987Z" fill="#020202"/>
<path d="M0.72 7.87988H9.904L10.112 7.94388L10.272 8.03988L10.4 8.15188L10.512 8.31188L10.592 8.50388L10.624 8.66388V8.83988L10.576 9.04788L10.48 9.23988L10.304 9.43188L10.128 9.54388L9.936 9.60788L9.824 9.62388H0.8L0.576 9.57588L0.384 9.47988L0.192 9.30388L0.08 9.12788L0.016 8.93588L0 8.83988V8.66388L0.064 8.40788L0.16 8.23188L0.288 8.08788L0.512 7.94388L0.72 7.87988Z" fill="#272727"/>
</g>
<defs>
<clipPath id="clip0_772_13969">
<rect width="10.624" height="9.248" fill="white" transform="translate(0 0.375977)"/>
</clipPath>
</defs>
</svg>
