<svg width="20" height="20" viewBox="0 0 15 16" fill="none" xmlns="http://www.w3.org/2000/svg">
<g clip-path="url(#clip0_772_13978)">
<path d="M3.75626 8L3.80634 8.02086L4.03172 8.16688L4.30718 8.32334L4.53255 8.43807L4.75793 8.54237L5.05843 8.66754L5.42154 8.7927L5.87229 8.91786L6.27296 9.0013L6.71119 9.06389L7.08681 9.09518L7.34975 9.10561H7.66277L8.06344 9.08475L8.45159 9.04302L8.83973 8.98044L9.21536 8.897L9.61603 8.78227L9.99165 8.64668L10.3422 8.50065L10.5551 8.39635L10.8306 8.25033L11.0309 8.12516L11.1937 8.02086L11.2437 8L11.5192 8.13559L11.7947 8.29205L12.0326 8.43807L12.2078 8.5528L12.3706 8.66754L12.5083 8.76141L12.6336 8.86571L12.7337 8.93872L12.9591 9.12647L13.0467 9.20991L13.1845 9.33507L13.2972 9.4498L13.4474 9.60626L13.6227 9.80443L13.8481 10.086L13.9983 10.2947L14.1235 10.4824L14.2613 10.7014L14.424 11.0039L14.5492 11.2751L14.6995 11.6506L14.7997 11.9739L14.8873 12.3181L14.9499 12.6728L14.9875 13.0274L15 13.2673V13.4863L14.975 13.6636L14.9124 13.8618L14.8372 14.0183L14.7245 14.1851L14.5993 14.3312L14.4866 14.4355L14.399 14.5189L14.2362 14.6441L14.0234 14.7797L13.7604 14.9257L13.4975 15.0508L13.172 15.1864L12.7462 15.3325L12.3205 15.4576L11.8573 15.5724L11.3564 15.6767L10.6678 15.7914L10.1043 15.8644L9.46578 15.927L8.8773 15.9687L8.43907 15.9896L8.11352 16H6.88648L6.32304 15.9791L5.65943 15.9374L5.08347 15.8853L4.48247 15.8123L3.94407 15.7288L3.43072 15.6349L2.96745 15.5306L2.52922 15.4159L2.15359 15.3012L1.77796 15.1656L1.45242 15.03L1.17696 14.8944L0.976628 14.7797L0.801336 14.6649L0.676127 14.5711L0.57596 14.498L0.43823 14.3729L0.300501 14.2164L0.187813 14.06L0.100167 13.8931L0.0375626 13.7158L0.0125209 13.601L0 13.4863V13.2673L0.0250417 12.8814L0.0751252 12.5163L0.13773 12.2138L0.237896 11.8383L0.363105 11.4837L0.500835 11.1604L0.663606 10.837L0.826377 10.5554L0.976628 10.3259L1.12688 10.1173L1.35225 9.83572L1.51503 9.64798L1.6778 9.4811L1.79048 9.36636L1.94073 9.22034L2.02838 9.14733L2.11603 9.06389L2.3414 8.87614L2.44157 8.80313L2.60434 8.67797L2.74207 8.58409L2.92988 8.45893L3.16778 8.31291L3.46828 8.14602L3.75626 8Z" fill="#F2F2F2"/>
<path d="M6.875 0H7.375L7.69792 0.03125L7.98958 0.0833333L8.28125 0.15625L8.59375 0.260417L8.86458 0.375L9.09375 0.489583L9.32292 0.625L9.55208 0.78125L9.73958 0.927083L9.89583 1.0625L10.0729 1.22917L10.1979 1.36458L10.3333 1.52083L10.4896 1.72917L10.6146 1.91667L10.7083 2.07292L10.8333 2.3125L10.9271 2.51042L11.0313 2.78125L11.125 3.10417L11.1875 3.39583L11.2292 3.6875L11.25 4.04167V4.19792L11.2292 4.54167L11.1875 4.84375L11.125 5.13542L11.0417 5.41667L10.9479 5.67708L10.8333 5.92708L10.6979 6.1875L10.5729 6.38542L10.4479 6.5625L10.3438 6.69792L10.2292 6.83333L10.1146 6.95833L9.875 7.19792L9.76042 7.29167L9.59375 7.42708L9.38542 7.57292L9.17708 7.69792L8.92708 7.83333L8.66667 7.94792L8.375 8.05208L8.11458 8.125L7.8125 8.1875L7.48958 8.22917L7.33333 8.23958H6.91667L6.65625 8.21875L6.32292 8.16667L6.01042 8.09375L5.63542 7.96875L5.39583 7.86458L5.21875 7.78125L5 7.65625L4.80208 7.53125L4.60417 7.38542L4.46875 7.27083L4.35417 7.17708L4.05208 6.875L3.95833 6.76042L3.85417 6.63542L3.71875 6.44792L3.60417 6.27083L3.47917 6.05208L3.36458 5.82292L3.25 5.54167L3.15625 5.25L3.09375 5L3.04167 4.70833L3.01042 4.42708L3 4.19792V4.05208L3.02083 3.6875L3.0625 3.39583L3.125 3.10417L3.19792 2.85417L3.27083 2.64583L3.375 2.39583L3.52083 2.10417L3.66667 1.86458L3.79167 1.6875L3.89583 1.55208L4.01042 1.41667L4.10417 1.3125L4.22917 1.17708L4.38542 1.03125L4.52083 0.916667L4.69792 0.78125L4.97917 0.59375L5.19792 0.46875L5.5 0.322917L5.80208 0.208333L6.08333 0.125L6.36458 0.0625L6.63542 0.0208333L6.875 0Z" fill="#F2F2F2"/>
</g>
<defs>
<clipPath id="clip0_772_13978">
<rect width="15" height="16" fill="white"/>
</clipPath>
</defs>
</svg>
