<svg width="20" height="20" viewBox="0 0 19 18" fill="none" xmlns="http://www.w3.org/2000/svg">
<path d="M7.22937 0.0771484C8.93751 0.0771484 10.5757 0.755705 11.7835 1.96354C12.9914 3.17138 13.6699 4.80956 13.6699 6.5177C13.6699 8.11298 13.0853 9.57944 12.1242 10.709L12.3917 10.9765H13.1745L18.1288 15.9308L16.6425 17.4171L11.6882 12.4628V11.6801L11.4207 11.4125C10.2911 12.3737 8.82465 12.9583 7.22937 12.9583C5.52123 12.9583 3.88305 12.2797 2.67521 11.0719C1.46737 9.86403 0.788818 8.22584 0.788818 6.5177C0.788818 4.80956 1.46737 3.17138 2.67521 1.96354C3.88305 0.755705 5.52123 0.0771484 7.22937 0.0771484V0.0771484ZM7.22937 2.05886C4.75224 2.05886 2.77053 4.04057 2.77053 6.5177C2.77053 8.99484 4.75224 10.9765 7.22937 10.9765C9.70651 10.9765 11.6882 8.99484 11.6882 6.5177C11.6882 4.04057 9.70651 2.05886 7.22937 2.05886Z" fill="#686B6F"/>
</svg>
