<svg width="20" height="20" viewBox="0 0 20 20" fill="none" xmlns="http://www.w3.org/2000/svg">
<path d="M11.5826 3.14002C12.2248 2.44423 12.5459 2.09633 12.8871 1.8934C13.7104 1.40376 14.7242 1.38853 15.5612 1.85324C15.9082 2.04583 16.2391 2.38394 16.9011 3.06014C17.563 3.73634 17.894 4.07445 18.0825 4.42882C18.5374 5.28389 18.5225 6.3195 18.0432 7.16054C17.8446 7.5091 17.504 7.83711 16.8229 8.49314L8.71879 16.2987C7.42802 17.5419 6.78264 18.1635 5.97605 18.4786C5.16945 18.7936 4.28273 18.7704 2.50929 18.7241L2.26799 18.7178C1.7281 18.7036 1.45815 18.6966 1.30123 18.5185C1.14431 18.3404 1.16574 18.0654 1.20858 17.5155L1.23185 17.2168C1.35244 15.669 1.41274 14.895 1.715 14.1993C2.01726 13.5036 2.53865 12.9387 3.58142 11.8089L11.5826 3.14002Z" stroke="#14181F" stroke-width="1.55124" stroke-linejoin="round"/>
<path d="M10.6572 3.23877L16.6898 9.27137" stroke="#14181F" stroke-width="1.55124" stroke-linejoin="round"/>
<path d="M11.519 18.751L18.4134 18.751" stroke="#14181F" stroke-width="1.55124" stroke-linecap="round" stroke-linejoin="round"/>
</svg>
