<svg width="20" height="20" viewBox="0 0 20 14" fill="none" xmlns="http://www.w3.org/2000/svg">
<path d="M18.3869 6.31016C18.649 6.67756 18.78 6.86126 18.78 7.13319C18.78 7.40512 18.649 7.58882 18.3869 7.95622C17.2097 9.60704 14.2031 13.1658 10.162 13.1658C6.12078 13.1658 3.11423 9.60704 1.93696 7.95622C1.67495 7.58882 1.54395 7.40512 1.54395 7.13319C1.54395 6.86126 1.67495 6.67756 1.93696 6.31016C3.11423 4.65934 6.12078 1.10059 10.162 1.10059C14.2031 1.10059 17.2097 4.65934 18.3869 6.31016Z" stroke="#14181F" stroke-width="1.55124"/>
<path d="M12.7472 7.13335C12.7472 5.70547 11.5897 4.54795 10.1618 4.54795C8.73394 4.54795 7.57642 5.70547 7.57642 7.13335C7.57642 8.56123 8.73394 9.71875 10.1618 9.71875C11.5897 9.71875 12.7472 8.56123 12.7472 7.13335Z" stroke="#14181F" stroke-width="1.55124"/>
</svg>
